<?xml version="1.0" standalone="no"?>
<!DOCTYPE svg PUBLIC "-//W3C//DTD SVG 20010904//EN"
 "http://www.w3.org/TR/2001/REC-SVG-20010904/DTD/svg10.dtd">
<svg version="1.0" xmlns="http://www.w3.org/2000/svg"
 width="1240.000000pt" height="1257.000000pt" viewBox="0 0 1240.000000 1257.000000"
 preserveAspectRatio="xMidYMid meet">

<g transform="translate(0.000000,1257.000000) scale(0.100000,-0.100000)"
fill="#000000" stroke="none">
<path d="M5325 12549 c-596 -21 -1057 -59 -1515 -125 -355 -51 -597 -109 -875
-210 -329 -119 -584 -247 -875 -440 -221 -146 -400 -293 -590 -483 -477 -478
-808 -1050 -1007 -1741 -168 -584 -340 -2022 -434 -3635 -28 -484 -31 -1048
-6 -1278 119 -1089 546 -1862 1312 -2375 l120 -80 33 -90 c60 -162 136 -253
261 -315 55 -27 78 -32 157 -35 110 -5 194 16 288 72 l58 36 117 -29 c388 -98
743 -129 1492 -131 119 0 270 -3 336 -6 l119 -7 -58 -151 c-33 -83 -89 -239
-126 -346 l-67 -195 0 -155 c0 -180 15 -236 92 -352 130 -196 375 -271 576
-175 130 62 148 84 608 757 l424 620 803 0 c760 0 803 -1 798 -17 -3 -10 -67
-259 -143 -553 -137 -532 -138 -536 -137 -645 0 -89 4 -121 22 -166 64 -162
195 -263 378 -288 185 -27 403 69 537 235 111 137 433 740 687 1285 40 85 73
155 75 157 2 2 129 8 282 13 299 9 464 25 693 64 274 48 592 140 808 234 l92
40 53 -24 c29 -14 87 -30 128 -36 88 -14 179 2 277 47 79 38 187 148 235 241
37 70 77 202 77 251 0 17 27 53 92 121 539 567 829 1322 867 2254 36 899 -141
3124 -330 4147 -155 840 -551 1618 -1124 2209 -541 558 -1280 965 -2043 1125
-369 77 -1129 148 -1902 176 -312 11 -1334 11 -1665 -1z m1850 -289 c865 -43
1438 -107 1800 -200 651 -167 1230 -491 1699 -949 237 -232 419 -462 589 -744
229 -379 414 -851 501 -1282 172 -849 346 -2818 346 -3915 0 -527 -36 -819
-146 -1202 -98 -343 -270 -682 -477 -942 -39 -49 -72 -85 -74 -80 -1 5 -14
104 -28 219 -28 226 -100 703 -140 930 -27 153 -40 179 -99 209 -32 16 -44 17
-76 7 -50 -15 -90 -62 -90 -107 0 -18 20 -154 45 -301 123 -739 184 -1292 155
-1414 -66 -281 -350 -366 -469 -141 -7 13 -138 361 -292 775 -308 828 -298
807 -380 807 -76 0 -129 -49 -129 -119 0 -24 486 -1351 554 -1515 l15 -35
-102 -39 c-198 -77 -403 -133 -642 -177 -234 -42 -383 -55 -795 -66 l-395 -11
-461 126 c-254 69 -474 126 -489 126 -61 0 -103 -46 -124 -135 -7 -27 -16 -67
-22 -87 l-10 -38 -826 0 -827 0 -465 309 c-256 170 -476 314 -488 320 -33 17
-74 13 -111 -9 -38 -23 -59 -66 -207 -414 l-89 -208 -236 6 c-129 3 -395 8
-590 11 -507 8 -771 32 -1068 96 -102 22 -104 23 -98 48 3 14 12 58 20 96 20
88 20 168 1 375 -43 465 -183 1380 -220 1437 -18 27 -71 53 -107 53 -36 0 -87
-36 -105 -75 -16 -34 -15 -44 35 -347 92 -553 148 -991 159 -1233 5 -116 3
-150 -11 -200 -64 -223 -287 -318 -418 -179 -40 43 -53 75 -338 844 -144 388
-269 720 -278 739 -11 24 -29 40 -61 54 -41 18 -49 19 -85 6 -46 -16 -86 -67
-86 -110 0 -22 308 -871 327 -902 18 -29 -48 27 -146 125 -205 204 -354 408
-480 658 -181 356 -284 730 -333 1210 -16 159 -16 830 1 1140 69 1299 219
2699 362 3389 212 1019 779 1858 1610 2379 436 274 963 473 1449 547 575 87
1010 122 1855 149 207 7 1389 -3 1590 -14z m-1971 -10215 c190 -126 346 -234
346 -238 0 -5 -180 -273 -401 -595 -419 -614 -468 -676 -548 -701 -87 -26
-184 18 -245 111 -76 115 -75 242 2 468 138 403 462 1194 487 1188 7 -2 168
-106 359 -233z m2932 -222 l392 -106 -20 -46 c-51 -116 -345 -705 -435 -871
-202 -371 -261 -452 -376 -510 -143 -72 -303 -32 -353 87 -30 71 -20 121 166
848 99 386 180 705 180 710 0 9 -16 13 446 -112z"/>
<path d="M5890 11134 c-1025 -37 -1832 -208 -2495 -528 -356 -172 -647 -378
-896 -632 -215 -221 -345 -404 -475 -669 -126 -258 -199 -493 -246 -786 -21
-134 -23 -176 -23 -579 0 -558 22 -810 100 -1115 234 -926 960 -1446 2335
-1674 599 -100 1130 -135 2010 -135 608 0 847 8 1278 45 1378 116 2252 446
2713 1025 346 435 470 971 456 1960 -5 379 -19 504 -82 748 -51 197 -97 323
-190 511 -134 273 -266 459 -478 674 -652 661 -1663 1040 -3028 1136 -211 14
-789 26 -979 19z m870 -275 c711 -40 1346 -166 1865 -370 142 -55 441 -207
573 -289 664 -416 1043 -976 1168 -1726 22 -130 31 -717 15 -964 -41 -635
-190 -1050 -491 -1364 -382 -398 -954 -627 -1925 -770 -570 -84 -1107 -112
-1965 -103 -762 8 -1073 30 -1628 112 -610 90 -1097 238 -1447 440 -146 84
-256 167 -373 279 -309 298 -447 631 -524 1266 -17 141 -17 949 0 1065 115
765 498 1341 1174 1765 132 82 431 234 573 289 776 305 1833 436 2985 370z"/>
<path d="M3950 8535 c-30 -9 -73 -26 -95 -40 -59 -34 -132 -117 -163 -183 -25
-53 -27 -69 -30 -218 -3 -130 -1 -174 13 -220 31 -112 114 -207 221 -256 41
-20 66 -23 159 -23 93 0 118 3 159 23 107 49 190 144 221 256 14 46 16 91 14
220 -4 159 -5 162 -37 228 -42 86 -129 168 -209 198 -76 28 -182 35 -253 15z"/>
<path d="M8240 8535 c-30 -9 -73 -26 -95 -40 -59 -34 -132 -117 -163 -183 -25
-53 -27 -69 -30 -218 -3 -130 -1 -174 13 -220 31 -112 114 -207 221 -256 41
-20 66 -23 159 -23 93 0 118 3 159 23 107 49 190 144 221 256 14 46 16 91 14
220 -4 159 -5 162 -37 228 -42 86 -129 168 -209 198 -76 28 -182 35 -253 15z"/>
<path d="M5613 7685 c-29 -20 -38 -66 -20 -102 25 -47 178 -187 255 -232 39
-24 106 -55 149 -69 70 -24 93 -26 223 -26 138 0 150 1 240 32 52 18 124 49
160 69 81 44 196 128 204 149 13 35 6 81 -17 102 -37 35 -74 28 -152 -29 -331
-242 -641 -217 -904 74 -37 40 -49 47 -80 47 -20 0 -46 -7 -58 -15z"/>
<path d="M8440 4919 c-401 -84 -953 -149 -1525 -180 -282 -15 -1043 -15 -1340
0 -572 29 -1107 82 -1625 161 -228 35 -264 36 -307 10 -64 -39 -85 -105 -55
-174 35 -78 32 -77 402 -131 622 -90 1284 -149 1810 -160 135 -3 278 -8 318
-11 l73 -6 -36 -40 c-117 -129 -207 -347 -247 -598 -10 -66 -13 -265 -13 -878
l0 -794 28 -24 c41 -35 99 -33 137 4 l28 29 5 779 c4 735 6 785 25 889 38 201
98 346 187 455 51 63 59 109 25 152 l-19 25 91 7 c50 3 148 6 217 6 308 0 877
43 1281 96 274 36 645 106 691 130 87 45 102 159 30 228 -41 40 -82 45 -181
25z"/>
<path d="M6483 2892 c-205 -73 -274 -335 -130 -498 82 -93 220 -129 341 -88
64 22 147 100 177 166 35 80 33 184 -6 261 -70 142 -237 211 -382 159z"/>
</g>
</svg>
